<svg width="24" height="24" viewBox="0 0 24 24" fill="none" xmlns="http://www.w3.org/2000/svg">
<path d="M19.8 3.40909H18.825V2.45455C18.825 1.92955 18.3862 1.5 17.85 1.5C17.3138 1.5 16.875 1.92955 16.875 2.45455V3.40909H7.125V2.45455C7.125 1.92955 6.68625 1.5 6.15 1.5C5.61375 1.5 5.175 1.92955 5.175 2.45455V3.40909H4.2C3.1275 3.40909 2.25 4.26818 2.25 5.31818V20.5909C2.25 21.6409 3.1275 22.5 4.2 22.5H19.8C20.8725 22.5 21.75 21.6409 21.75 20.5909V5.31818C21.75 4.26818 20.8725 3.40909 19.8 3.40909ZM18.825 20.5909H5.175C4.63875 20.5909 4.2 20.1614 4.2 19.6364V8.18182H19.8V19.6364C19.8 20.1614 19.3612 20.5909 18.825 20.5909Z" fill="#212121"/>
</svg>
