<svg width="24" height="24" viewBox="0 0 24 24" fill="none" xmlns="http://www.w3.org/2000/svg">
<g clip-path="url(#clip0_6_1133)">
<path fill-rule="evenodd" clip-rule="evenodd" d="M12.3736 21C16.0954 21 18.3736 18.6172 18.3736 16.5C18.3736 14.3828 16.0954 12 12.3736 12C8.65181 12 6.3736 14.3828 6.3736 16.5C6.3736 18.6172 8.65181 21 12.3736 21ZM12.3736 23C16.7919 23 20.3736 20.0899 20.3736 16.5C20.3736 12.9101 16.7919 10 12.3736 10C7.95532 10 4.3736 12.9101 4.3736 16.5C4.3736 20.0899 7.95532 23 12.3736 23Z" fill="#212121"/>
<path fill-rule="evenodd" clip-rule="evenodd" d="M11.8736 7C12.4595 7 13.3736 6.36378 13.3736 5C13.3736 3.63622 12.4595 3 11.8736 3C11.2877 3 10.3736 3.63622 10.3736 5C10.3736 6.36378 11.2877 7 11.8736 7ZM11.8736 9C13.8066 9 15.3736 7.20914 15.3736 5C15.3736 2.79086 13.8066 1 11.8736 1C9.9406 1 8.3736 2.79086 8.3736 5C8.3736 7.20914 9.9406 9 11.8736 9Z" fill="#212121"/>
<path fill-rule="evenodd" clip-rule="evenodd" d="M5.41055 8.63734C5.53551 8.22803 5.54333 7.63716 5.2989 6.997C5.05447 6.35683 4.65484 5.92154 4.28888 5.69968C3.92584 5.47958 3.6943 5.51166 3.5908 5.55118C3.4873 5.5907 3.2933 5.7211 3.16934 6.12714C3.04438 6.53645 3.03656 7.12732 3.28099 7.76749C3.52542 8.40765 3.92506 8.84294 4.29101 9.06481C4.65405 9.28491 4.88559 9.25283 4.98909 9.21331C5.0926 9.17378 5.28659 9.04339 5.41055 8.63734ZM5.70251 11.0817C7.29164 10.475 7.94747 8.32676 7.16733 6.28358C6.3872 4.24041 4.46652 3.07597 2.87739 3.68275C1.28825 4.28952 0.632424 6.43772 1.41256 8.4809C2.19269 10.5241 4.11337 11.6885 5.70251 11.0817Z" fill="#212121"/>
<path fill-rule="evenodd" clip-rule="evenodd" d="M19.6404 8.44572C20.0013 8.21558 20.3909 7.77131 20.6207 7.12574C20.8505 6.48018 20.8292 5.88965 20.695 5.48328C20.5618 5.08016 20.3649 4.95422 20.2605 4.91706C20.1561 4.87991 19.9239 4.85311 19.566 5.08141C19.2052 5.31155 18.8155 5.75583 18.5857 6.40139C18.356 7.04695 18.3772 7.63749 18.5115 8.04385C18.6446 8.44697 18.8415 8.57292 18.9459 8.61007C19.0503 8.64723 19.2825 8.67403 19.6404 8.44572ZM18.2752 10.4943C19.8778 11.0647 21.7714 9.85685 22.5049 7.79644C23.2383 5.73604 22.5337 3.60332 20.9312 3.03287C19.3287 2.46243 17.435 3.67029 16.7016 5.73069C15.9681 7.7911 16.6727 9.92382 18.2752 10.4943Z" fill="#212121"/>
</g>
<defs>
<clipPath id="clip0_6_1133">
<rect width="24" height="24" fill="white"/>
</clipPath>
</defs>
</svg>
