<svg width="24" height="24" viewBox="0 0 24 24" fill="none" xmlns="http://www.w3.org/2000/svg">
<g clip-path="url(#clip0_6_1210)">
<path fill-rule="evenodd" clip-rule="evenodd" d="M8.30985 12.6582C8.26413 12.7556 8.23827 12.866 8.23827 12.9827V14.4035C8.23827 14.519 8.26363 14.6284 8.30851 14.7251C8.4154 14.9553 8.63301 15.1139 8.88257 15.1139H10.8155V17.2451C10.8155 17.6358 11.1054 17.9555 11.4598 17.9555H12.7484C13.1027 17.9555 13.3927 17.6358 13.3927 17.2451V15.1139H15.3256C15.5776 15.1139 15.797 14.9522 15.9028 14.7182C15.9457 14.6232 15.9699 14.5163 15.9699 14.4035V12.9827C15.9699 12.8699 15.9457 12.763 15.9028 12.668C15.797 12.434 15.5776 12.2723 15.3256 12.2723H13.3927V10.1411C13.3927 9.75039 13.1027 9.43071 12.7484 9.43071H11.4598C11.1054 9.43071 10.8155 9.75039 10.8155 10.1411V12.2723H8.88257C8.63404 12.2723 8.41721 12.4295 8.30985 12.6582ZM6.01157 11.8479C6.11344 11.8479 6.21417 11.8323 6.31041 11.8022L6.30537 19.5792C6.30537 20.3606 6.88524 21 7.59397 21H16.6142C17.3229 21 17.9028 20.3606 17.9028 19.5792V11.7726C18.023 11.8221 18.1523 11.8479 18.2835 11.8479H20.293C21.2271 11.8479 21.6512 10.6809 20.935 10.0812L12.7895 3.26014C12.4181 2.94905 11.877 2.94905 11.5055 3.26014L3.35999 10.0812C2.64383 10.6809 3.06791 11.8479 4.00202 11.8479H6.01157ZM4.30908 13.8479H4.00202C1.1997 13.8479 -0.0725449 10.347 2.07595 8.54784L10.2214 1.72677C11.3359 0.793508 12.9591 0.793511 14.0736 1.72677L22.2191 8.54785C24.3676 10.347 23.0953 13.8479 20.293 13.8479H19.9028V19.5792C19.9028 21.277 18.6068 23 16.6142 23H7.59397C5.60137 23 4.30537 21.277 4.30537 19.5792L4.30908 13.8479Z" fill="#212121"/>
</g>
<defs>
<clipPath id="clip0_6_1210">
<rect width="24" height="24" fill="white"/>
</clipPath>
</defs>
</svg>
